<?xml version="1.0" encoding="utf-8"?>
<!-- Generator: Adobe Illustrator 21.0.1, SVG Export Plug-In . SVG Version: 6.00 Build 0)  -->
<svg version="1.1" id="Layer_1" xmlns="http://www.w3.org/2000/svg" xmlns:xlink="http://www.w3.org/1999/xlink" x="0px" y="0px"
	 viewBox="0 0 463 84" style="enable-background:new 0 0 463 84;" xml:space="preserve">
<style type="text/css">
	.st0{fill:#54A7E5;}
	.st1{fill:#2E3638;}
</style>
<g>
	<path class="st0" d="M30,21.1c1.8,0,3.7,0,5.5,0c3.9,0,3.9-6,0-6c-1.8,0-3.7,0-5.5,0C26.1,15.1,26.1,21.1,30,21.1z"/>
	<path class="st0" d="M9.4,52.3c-1.8,0-3.7,0-5.5,0c-3.9,0-3.9,6,0,6c1.8,0,3.7,0,5.5,0C13.3,58.3,13.3,52.3,9.4,52.3z"/>
	<path class="st0" d="M154.8,60.4c0-10.3-6.8-18.9-16.2-21.7c0-0.5,0.1-1,0.1-1.4c0-11.4-9.2-20.6-20.6-20.6c-0.4,0-0.8,0-1.3,0.1
		C114.4,8.1,105,1.3,95.6,1.1C95.4,1,95.2,1,94.9,1C83.5,1,72.1,1,60.7,1c-3.9,0-3.9,6,0,6c2.3,0,4.6,0,6.9,0l1.7,0h1.2
		c2.2,0,4,1.8,4,4c0,2.2-1.8,4-4,4l-0.9,0c-8,0-16,0-24,0c-3.9,0-3.9,6,0,6c4.5,0,9,0,13.4,0c-4.2,3.9-6.9,9.4-6.9,15.6
		c0,0.5,0,1,0.1,1.5c-12.3,0-24.5,0-36.8,0c-3.9,0-3.9,6,0,6c5.7,0,11.4,0,17.1,0c1,0,2.1,0,3.1,0v0c2.2,0,3.9,1.8,3.9,4
		s-1.8,4-3.9,4v0c-3,0-6,0-8.9,0c-2.1,0-4.2,0-6.2,0c-3.9,0-3.9,6,0,6c1.6,0,3.1,0,4.7,0C25,59.2,25,60,25,60.9
		C25,73.1,34.9,83,47.1,83c0.3,0,0.7,0,1,0l0,0h84.5l0,0C144.9,82.7,154.8,72.7,154.8,60.4z M69.8,37c15,0,30,0,45,0
		c5.8,0,5.8,9,0,9c-15,0-30,0-45,0C64,46,64,37,69.8,37z M69.8,51.3c8.8,0,17.7,0,26.5,0c5.8,0,5.8,9,0,9c-8.8,0-17.7,0-26.5,0
		C64,60.3,64,51.3,69.8,51.3z M114.3,74.6c-15,0-30,0-45,0c-5.8,0-5.8-9,0-9c15,0,30,0,45,0C120.1,65.6,120.1,74.6,114.3,74.6z
		 M114.8,60.3c-2.2,0-4.3,0-6.5,0c-2.5,0-4.4-2.1-4.5-4.5c-0.1-2.4,2.1-4.5,4.5-4.5c2.2,0,4.3,0,6.5,0c2.5,0,4.4,2.1,4.5,4.5
		C119.4,58.2,117.2,60.3,114.8,60.3z"/>
</g>
<g>
	<path class="st1" d="M187.2,21.3c4.4,0,14.1,1.7,14.1,8.6v4.8h-8.2v-2c0-2.1-3.3-2.9-5.7-2.9c-5.4,0-9.7,3.5-9.7,10.1
		c0,6,4.5,10.9,9.9,10.9c6.4,0,10.5-4.7,10.5-4.7l4.7,6.6c0,0-5.6,6.6-15.3,6.6c-11.6,0-19.3-8.3-19.3-19.4
		C168.2,29.4,176.3,21.3,187.2,21.3z"/>
	<path class="st1" d="M207.9,30.6c0-0.7-0.4-1.1-1.1-1.1h-2V22h8.2c2.6,0,3.8,1.1,3.8,3.8v24.5c0,0.7,0.4,1.1,1.1,1.1h2v7.5h-8.2
		c-2.6,0-3.8-1.1-3.8-3.8V30.6z"/>
	<path class="st1" d="M237.1,31.6c8.4,0,15,5.6,15,14c0,8.3-6.6,13.8-15,13.8s-15-5.5-15-13.8C222.2,37.2,228.8,31.6,237.1,31.6z
		 M237.2,52c3.2,0,6-2.4,6-6.4c0-4-2.8-6.5-6-6.5c-3.2,0-6,2.5-6,6.5C231.2,49.6,233.9,52,237.2,52z"/>
	<path class="st1" d="M257.4,40.9c0-0.7-0.4-1.1-1.1-1.1h-2v-7.5h8.2c2.6,0,3.8,1.1,3.8,3.8v11.8c0,2.5,1,3.5,2.8,3.5
		c3.8,0,5.6-3.3,5.6-7.3V32.3h8.9v17.9c0,0.7,0.4,1.1,1.1,1.1h2v7.5h-7.9c-2.4,0-3.8-1.2-3.8-3v-0.4c0-0.3,0.1-0.6,0.1-0.6h-0.1
		c-1.4,2.8-4.7,4.6-8.2,4.6c-5.3,0-9.4-2.5-9.4-9.9V40.9z"/>
	<path class="st1" d="M301.1,31.6c5.4,0,7,1.9,7,1.9h0.1c0,0-0.1-0.5-0.1-1.2v-1.8c0-0.7-0.4-1.1-1.1-1.1h-2V22h8.2
		c2.6,0,3.8,1.1,3.8,3.8v24.5c0,0.7,0.4,1.1,1.1,1.1h2v7.5h-7.9c-2.5,0-3.5-1.3-3.5-2.5c0-0.2,0-0.5,0-0.5h-0.1c0,0-2.2,3.6-7.7,3.6
		c-7.2,0-11.9-5.7-11.9-13.9C289,37.1,294.1,31.6,301.1,31.6z M308.4,45.5c0-3.2-1.7-6.3-5.2-6.3c-2.8,0-5.2,2.3-5.2,6.3
		c0,4,2.1,6.5,5.2,6.5C305.9,52,308.4,50.1,308.4,45.5z"/>
	<path class="st0" d="M327.7,46.9c0,0,3.8,4.3,8.4,4.3c1.9,0,3.7-0.7,3.7-2.7c0-4.1-16.7-4.5-16.7-16.1c0-6.6,5.8-11.1,13.1-11.1
		c4.9,0,11.7,2.4,11.7,8v4h-8.2v-1.6c0-1.3-1.9-2.2-3.6-2.2c-1.9,0-3.8,0.8-3.8,2.5c0,4.5,16.7,3.9,16.7,16
		c0,6.1-4.8,11.4-13.1,11.4c-8.7,0-13.4-6.1-13.4-6.1L327.7,46.9z"/>
	<path class="st0" d="M354.8,39.2h-3.4v-7h3.7v-7.2h8.7v7.2h5.6v7h-5.6v8.6c0,3,3,3.4,4.7,3.4c0.7,0,1.2-0.1,1.2-0.1v7.7
		c0,0-1,0.2-2.4,0.2c-4.2,0-12.4-1.1-12.4-10V39.2z"/>
	<path class="st0" d="M387.9,42.1h0.4v-0.3c0-2.5-1.2-3.5-3.4-3.5c-1.1,0-2.3,0.3-2.3,1.3v1.2h-8.2v-2.9c0-5.9,7.5-6.2,10.6-6.2
		c9.3,0,12.3,4.7,12.3,10.8v7.7c0,0.7,0.4,1.1,1.1,1.1h2v7.5h-7.7c-2.6,0-3.5-1.6-3.5-2.8c0-0.2,0-0.5,0-0.5h-0.1
		c0,0-1.9,3.9-7.4,3.9c-4.9,0-9-3.3-9-8.5C372.5,43,383.8,42.1,387.9,42.1z M384,52.6c2.3,0,4.4-2.5,4.4-4.7v-0.4h-0.8
		c-2.8,0-6.1,0.8-6.1,2.9C381.5,51.6,382.3,52.6,384,52.6z"/>
	<path class="st0" d="M414.3,31.6c5.4,0,7.7,3.1,7.7,3.1h0.1c0,0,0-0.2,0-0.4c0-0.7,0.8-2.1,2.8-2.1h8v7.5h-1.9
		c-0.7,0-1.1,0.4-1.1,1v15.7c0,9.7-7.7,13.2-15,13.2c-3.6,0-7.5-1-10-2.4l2.6-7c0,0,3.2,1.7,7.4,1.7c3.2,0,6.1-1.2,6.1-5.1v-0.4
		c0-0.3,0.1-1,0.1-1H421c-1.5,1.7-3.6,2.5-6.6,2.5c-8,0-11.9-6.5-11.9-13.3C402.4,37.9,406.3,31.6,414.3,31.6z M421.3,44.8
		c0-4.7-2.5-5.7-5.1-5.7c-3.1,0-4.7,2.3-4.7,5.3c0,3.3,1.5,6.2,5.1,6.2C418.8,50.6,421.3,49.4,421.3,44.8z"/>
	<path class="st0" d="M449,31.6c7.8,0,12.3,5.5,12.3,12.8c0,0.9-0.2,2.7-0.2,2.7h-16.7c0.7,3.3,3.3,4.8,6.2,4.8
		c3.8,0,7.1-2.8,7.1-2.8l3.6,6c0,0-4.3,4.2-11.3,4.2c-9.5,0-14.6-6.8-14.6-13.9C435.2,37.7,440.5,31.6,449,31.6z M452.2,41.7
		c0-1.6-1.3-3.4-3.1-3.4c-2.6,0-3.9,1.4-4.4,3.4H452.2z"/>
</g>
</svg>
